<?xml version="1.0" standalone="no"?><!DOCTYPE svg PUBLIC "-//W3C//DTD SVG 1.1//EN" "http://www.w3.org/Graphics/SVG/1.1/DTD/svg11.dtd"><svg class="icon" width="200px" height="200.00px" viewBox="0 0 1024 1024" version="1.1" xmlns="http://www.w3.org/2000/svg"><path d="M432 192h220c99.412 0 180 80.588 180 180v380c0 44.184-35.816 80-80 80H432c-44.182 0-80-35.816-80-80V272c0-44.182 35.818-80 80-80z" fill="#4988FD" /><path d="M232 352h240c22.092 0 40 17.908 40 40v240c0 22.092-17.908 40-40 40H232c-22.092 0-40-17.908-40-40V392c0-22.092 17.908-40 40-40z" fill="#DFECFD" /><path d="M324.314 586.964a19.942 19.942 0 0 1-14.214-5.928l-54.096-54.638c-7.772-7.85-7.708-20.514 0.142-28.286 7.848-7.77 20.512-7.708 28.284 0.142l54.096 54.638c7.772 7.85 7.708 20.514-0.142 28.286a19.934 19.934 0 0 1-14.07 5.786z" fill="#4988FD" /><path d="M324.312 586.964a19.934 19.934 0 0 1-14.23-5.946c-7.762-7.86-7.684-20.522 0.176-28.286l109.276-107.928c7.856-7.764 20.522-7.684 28.284 0.176 7.762 7.858 7.684 20.522-0.176 28.284l-109.276 107.93a19.946 19.946 0 0 1-14.054 5.77z" fill="#4988FD" /></svg>