
<svg version="1.1" id="图层_1" xmlns="http://www.w3.org/2000/svg" xmlns:xlink="http://www.w3.org/1999/xlink" x="0px" y="0px"
	 viewBox="0 0 16 16" style="enable-background:new 0 0 16 16;" xml:space="preserve">
<path class="st1" d="M11.1,4.3h-0.5L8,8.9L5.3,5.5l-0.5,0L2.5,9.2l0.6,0.3l2-3.1l2.7,3.4l0.5,0L11,5.3l1.9,2.9l0.6-0.4L11.1,4.3z
	 M10.2,12.2H5.8v2.1h4.4V12.2z M14.5,1C15.4,1,16,1.6,16,2.4v8.4c0,0.8-0.6,1.4-1.5,1.4h-3.6v2.1h3.4V15H1.6v-0.7h3.5v-2.1H1.5
	c-0.8,0-1.5-0.6-1.5-1.4V2.4C0,1.6,0.6,1,1.5,1H14.5z"/>
</svg>
