<svg version="1.1" id="图层_1" xmlns="http://www.w3.org/2000/svg" xmlns:xlink="http://www.w3.org/1999/xlink" x="0px" y="0px"
	 viewBox="0 0 16 16" style="enable-background:new 0 0 16 16;" xml:space="preserve">
<path class="st0" d="M15.8,6.4L9,0.9c-0.6-0.5-1.5-0.5-2.1,0L0.2,6.4C0,6.6-0.1,7,0.1,7.2c0.2,0.2,0.5,0.3,0.7,0.1l0.2-0.2v6.7
	c0,0.9,0.9,1.6,1.8,1.6h10.6c0.8,0,1.4-0.7,1.4-1.6V7.1l0.2,0.2c0.1,0.1,0.2,0.1,0.3,0.1c0.2,0,0.3-0.1,0.4-0.2
	C16.1,7,16,6.6,15.8,6.4z M9.6,13.2v1.1H6.4v-3.1c0-0.6,0.5-1.3,1.6-1.3c1.1,0,1.6,0.7,1.6,1.3V13.2z"/>
</svg>
