<svg version="1.1" id="图层_1" xmlns="http://www.w3.org/2000/svg" xmlns:xlink="http://www.w3.org/1999/xlink" x="0px" y="0px"
	 viewBox="0 0 16 16" style="enable-background:new 0 0 16 16;" xml:space="preserve">
<path class="st0" d="M15.8,6.4c-0.1-0.5-0.4-0.8-0.7-0.7h-0.1c-1.1,0-2.1-0.9-2.1-2.1c0-0.4,0.2-0.8,0.2-0.8c0.2-0.4,0-0.9-0.3-1.1
	l0,0l-2-1.1l0,0c-0.1-0.1-0.2-0.1-0.4-0.1c-0.3,0-0.6,0.1-0.7,0.3C9.4,1,8.7,1.7,8,1.7C7.4,1.7,6.6,1,6.4,0.8
	C6.2,0.6,5.9,0.4,5.6,0.4c-0.1,0-0.3,0-0.4,0.1l0,0L3.2,1.7l0,0C2.8,1.9,2.7,2.4,2.8,2.8c0,0,0.2,0.4,0.2,0.8c0,1.1-0.9,2.1-2.1,2.1
	H0.9C0.5,5.7,0.3,6,0.2,6.4C0.2,6.5,0,7.3,0,8c0,0.7,0.2,1.5,0.2,1.6c0.1,0.5,0.4,0.7,0.7,0.7h0.1c1.1,0,2.1,0.9,2.1,2.1
	c0,0.4-0.2,0.8-0.2,0.8c-0.2,0.4,0,0.9,0.3,1.1l0,0l2,1.1l0,0c0.1,0.1,0.2,0.1,0.4,0.1c0.3,0,0.6-0.1,0.8-0.3c0.2-0.3,1-1,1.7-1
	c0.6,0,1.4,0.7,1.7,1c0.2,0.2,0.5,0.3,0.8,0.3c0.1,0,0.3,0,0.4-0.1l0,0l2-1.1l0,0c0.4-0.3,0.5-0.7,0.3-1.1c0,0-0.2-0.4-0.2-0.8
	c0-1.1,0.9-2.1,2.1-2.1h0.1c0.3,0,0.6-0.3,0.7-0.7c0,0,0.2-0.9,0.2-1.6C16,7.3,15.8,6.5,15.8,6.4 M8,10.8c-1.5,0-2.8-1.2-2.8-2.8
	c0-1.5,1.2-2.8,2.8-2.8s2.8,1.2,2.8,2.8C10.7,9.5,9.5,10.8,8,10.8"/>
</svg>
